<svg xmlns="http://www.w3.org/2000/svg" xmlns:xlink="http://www.w3.org/1999/xlink" width="1920" height="896" viewBox="0 0 1920 896"><defs><style>.a{fill:#fff;stroke:#707070;}.b{clip-path:url(#a);}.c{fill:url(#b);}.d{fill:#bc36d9;}</style><clipPath id="a"><rect class="a" width="1920" height="896"/></clipPath><linearGradient id="b" x1="0.5" x2="0.5" y2="1" gradientUnits="objectBoundingBox"><stop offset="0" stop-color="#863398"/><stop offset="1" stop-color="#bc36d9"/></linearGradient></defs><g class="b"><path class="c" d="M1.418,1071.072s245.64-276.944,648.325-172.76,466.15,173.933,821.577,104.857,472.71-146.8,647.443-83.742,11.473-616.112,11.473-616.112H-13.613Z" transform="translate(-81.812 -303.317)"/><g transform="translate(230.601 974.496)"><circle class="d" cx="57" cy="57" r="57" transform="translate(1476.399 -305.496)"/><ellipse class="d" cx="49.5" cy="50" rx="49.5" ry="50" transform="translate(1394.399 -484.496)"/><ellipse class="d" cx="41.5" cy="42" rx="41.5" ry="42" transform="translate(1537.399 -677.496)"/><ellipse class="d" cx="38.5" cy="37" rx="38.5" ry="37" transform="translate(1532.399 -515.496)"/><ellipse class="d" cx="36.5" cy="37" rx="36.5" ry="37" transform="translate(1403.399 -226.496)"/><ellipse class="d" cx="19.5" cy="19" rx="19.5" ry="19" transform="translate(1493.399 -334.496)"/><circle class="d" cx="32" cy="32" r="32" transform="translate(1394.399 -562.496)"/><circle class="d" cx="19.5" cy="19.5" r="19.5" transform="translate(1620.399 -515.496)"/><circle class="d" cx="20" cy="20" r="20" transform="translate(1516.399 -633.496)"/><ellipse class="d" cx="28" cy="29" rx="28" ry="29" transform="translate(1476.399 -166.496)"/><circle class="d" cx="10.5" cy="10.5" r="10.5" transform="translate(1638.399 -448.496)"/><ellipse class="d" cx="10" cy="10.5" rx="10" ry="10.5" transform="translate(1359.399 -572.496)"/><circle class="d" cx="10.5" cy="10.5" r="10.5" transform="translate(1476.399 -99.496)"/></g></g></svg>