<svg xmlns="http://www.w3.org/2000/svg" xmlns:xlink="http://www.w3.org/1999/xlink" width="1920" height="757" viewBox="0 0 1920 757"><defs><style>.a{fill:#fcf0ff;}.b{clip-path:url(#a);}.c{opacity:0.146;}.d{fill:#eea2ff;}</style><clipPath id="a"><rect class="a" width="1920" height="757" transform="translate(0 7406)"/></clipPath></defs><g class="b" transform="translate(0 -7406)"><rect class="a" width="1920" height="757" transform="translate(0 7406)"/><g class="c" transform="translate(3260.176 8463.846) rotate(-150)"><circle class="d" cx="57" cy="57" r="57" transform="translate(1430.206 -261.505)"/><ellipse class="d" cx="49.5" cy="50" rx="49.5" ry="50" transform="translate(1394.399 -484.496)"/><ellipse class="d" cx="41.5" cy="42" rx="41.5" ry="42" transform="translate(1537.399 -677.496)"/><ellipse class="d" cx="38.5" cy="37" rx="38.5" ry="37" transform="translate(1532.399 -515.496)"/><ellipse class="d" cx="36.5" cy="37" rx="36.5" ry="37" transform="translate(1462.507 -100.118)"/><ellipse class="d" cx="19.5" cy="19" rx="19.5" ry="19" transform="translate(1447.206 -290.505)"/><circle class="d" cx="32" cy="32" r="32" transform="translate(1394.399 -562.496)"/><circle class="d" cx="19.5" cy="19.5" r="19.5" transform="translate(1576.287 -421.9)"/><circle class="d" cx="20" cy="20" r="20" transform="translate(1516.399 -633.496)"/><ellipse class="d" cx="28" cy="29" rx="28" ry="29" transform="translate(1544.567 -150.427)"/><circle class="d" cx="14" cy="14" r="14" transform="translate(1527.787 -457.957)"/><ellipse class="d" cx="10" cy="10.5" rx="10" ry="10.5" transform="translate(1359.399 -572.496)"/><circle class="d" cx="10.5" cy="10.5" r="10.5" transform="translate(1559.942 -28.795)"/></g></g></svg>